<?xml version="1.0" encoding="utf-8"?>
<!-- Generator: Adobe Illustrator 23.0.1, SVG Export Plug-In . SVG Version: 6.00 Build 0)  -->
<svg version="1.1" id="Calque_1" xmlns="http://www.w3.org/2000/svg" xmlns:xlink="http://www.w3.org/1999/xlink" x="0px" y="0px"
	 viewBox="0 0 730 338.8" style="enable-background:new 0 0 730 338.8;" xml:space="preserve">
<style type="text/css">
	.st0{fill:none;stroke:#FFFFFF;stroke-width:6;stroke-miterlimit:10;}
	.st1{fill:none;stroke:#FFFFFF;stroke-width:2;stroke-miterlimit:10;}
	.st2{fill:#FFFFFF;stroke:#FFFFFF;stroke-width:6;stroke-miterlimit:10;}
	.st3{fill:#FFFFFF;stroke:#FFFFFF;stroke-width:2;stroke-miterlimit:10;}
	.st4{fill:#FFFFFF;stroke:#FFFFFF;stroke-miterlimit:10;}
</style>
<g>
	<g>
		<g>
			<path class="st0" d="M625.8,224.8c3.5-9.8,2.5-25,2.5-25c4.5-9.8-4.3-12.3-4.3-12.3c-0.3-2.8-4-4.3-4-4.3
				c-1.5-19.3-10.3-24.3-10.3-24.3c-56.3-23.5-158-30.5-158-30.5s-74.3-47-95-51.3s-84-6.8-110.5-6.8s-67,6-67,6
				c-31.5,10-99,40.8-99,40.8l-53,7.5c0,0,1,5.5,2.8,11.8s0,33,0,33c-2,0.8-4.5,5.5-4.5,5.5s-6.5,1.8-8.3,3.5s0.8,21.8,0.8,21.8
				l16.3,23.5c3.8,2,71.8,6.9,71.8,6.9s1.3-38.7,33-53.7c0,0,33.3-14.4,61,9.3c20.8,17.8,16.1,54.6,16.1,54.6l143.6-3.2l141.5,3.5
				c0,0-4.2-38.8,19.3-59.7c20.9-18.6,52.7-12.4,66.8,2.3c10,10.4,15.9,24.8,12.8,54.4l2.7,2.6c6.5-8.3,29-10.3,29-10.3L625.8,224.8
				z M163,127.5c-12.5-9-6.3-13.5-6.3-13.5C177,99.5,209,85,209,85c26.8-8,107.3-3,138.5,1s83.2,48.7,83.2,48.7
				C419.7,135.4,163,127.5,163,127.5z"/>
		</g>
	</g>
	<path class="st1" d="M407.8,118c0,0-6.8,1.5-4.5,15.8"/>
	<polyline class="st1" points="263,81.8 278.3,132.8 264.5,131.3 253.5,82.5 	"/>
	<line class="st1" x1="218" y1="222" x2="501.8" y2="221.5"/>
	<path class="st1" d="M20,202.8c0,0,11.3,5,89.8,7.5"/>
	<path class="st1" d="M117.3,193.8L34,192.5c0,0-15.8-0.3-17-4.3l-0.8-8c0,0,8.8,4.5,19.5,4.5s89,2.5,89,2.5"/>
	<path class="st1" d="M130,182.8L39.3,180c0,0-10.5,0.8-13.8-5"/>
	<path class="st1" d="M30,169.5c0,0,23.5,3.3,25.5,1.5s1.8-7-0.8-14s-3.3-10.3-13.5-10.3s-10.3,0-10.3,0"/>
	<line class="st1" x1="30.5" y1="153.8" x2="53.8" y2="155.3"/>
	<line class="st1" x1="29.8" y1="161.3" x2="56.3" y2="162.3"/>
	<path class="st1" d="M85.5,116.5c0,0,17.8,3.8,24.3,3.8c0,0,68-35.8,75-38.3s-9.5-4.3-9.5-4.3"/>
	<polyline class="st1" points="208.8,195.8 506,200 509.8,192.3 201.8,188.3 	"/>
	<path class="st1" d="M292,222c0,0-7,0-8.8-7.5s-14.8-61.5-5-81.8"/>
	<path class="st1" d="M435,136.3c0,0,9.3,4.3,11.5,5.3s11.8,14.8,9.3,56.3l-2.8,24.8"/>
	<line class="st1" x1="628.5" y1="213" x2="607.3" y2="213.8"/>
	<line class="st1" x1="624.3" y1="224.8" x2="601.8" y2="225.8"/>
	<line class="st1" x1="601.8" y1="231" x2="626.5" y2="231.3"/>
	<polyline class="st1" points="626.8,199.5 605.3,200 602.8,193 628.5,192.3 	"/>
	<line class="st1" x1="624" y1="188.5" x2="594" y2="188.8"/>
	<line class="st1" x1="590.5" y1="184" x2="620" y2="183.3"/>
	<path class="st1" d="M616.3,165c0,0-8-0.5-12,18.3"/>
	<line class="st1" x1="581.8" y1="165" x2="610.3" y2="169"/>
	<path class="st1" d="M519,160.5c0,0-426.5-12.5-468.5-12"/>
	<path class="st1" d="M285.5,153.3c0,0,1.5-5.5,3.8-5.5s22,0.3,22,0.3l4,6.5"/>
	<path class="st1" d="M368,83.3c0,0,70.8,43.5,80,53.3l6.8-7.8c0,0,26.1,3.8-6.4,8"/>
	<path class="st1" d="M608.5,159.5c0,0-70-16.3-144.8-20.8"/>
	<path class="st1" d="M26.5,213c0,0-12.8,9,6.3,11.3"/>
	<path class="st1" d="M101.5,152.5h20.1c0,0,3.5,0.3,3.5,5.8s0,8,0,8s0.5,4.5-5.8,4.5s-16.9,0-16.9,0s-4.3,0.5-4.3-5
		s0.2-10.9,0.2-10.9S98.8,152.5,101.5,152.5z"/>
</g>
<g>
	<path class="st2" d="M511,222.3c0-22.3,18-40.3,40.3-40.3c22.3,0,40.3,18,40.3,40.3c0,22.3-18,40.3-40.3,40.3
		C529,262.6,511,244.5,511,222.3z"/>
	<circle class="st3" cx="551.3" cy="222.3" r="33.5"/>
	<circle class="st3" cx="551.3" cy="222.3" r="2.7"/>
	<g>
		<g>
			<g>
				<polygon class="st4" points="524.8,214.9 533.1,218.7 534.1,215.7 525.1,214.1 				"/>
			</g>
			<g>
				<path class="st4" d="M525.5,210.1c0.6-1.1,1.4-2.5,2.5-3.9c1-1.3,2.2-2.5,3.1-3.4l3.7,7.8l-0.7,0.8L525.5,210.1 M522.6,211.7
					l12.3,1.8l2.2-2.7l-5.4-11.3c0,0-3,2.3-5.4,5.4C523.6,208.6,522.6,211.7,522.6,211.7L522.6,211.7z"/>
			</g>
			<g>
				<path class="st4" d="M522.9,218.2l7.7,4.1l0.1,1.2l-7.7,4.3c-0.2-1.3-0.4-3-0.5-4.7C522.5,221.1,522.7,219.4,522.9,218.2
					 M521.5,215.2c0,0-1,3.2-1,7.9c0,4.1,1.1,7.8,1.1,7.8l11.1-6.3l-0.2-3.6L521.5,215.2L521.5,215.2z"/>
			</g>
			<g>
				<path class="st4" d="M545,215.3c-0.2,0.5,0.1,1,0.6,1.1c0.5,0.1,1-0.1,1.1-0.6c0.1-0.5-0.1-1-0.6-1.1
					C545.7,214.6,545.2,214.9,545,215.3L545,215.3z"/>
			</g>
			<circle class="st3" cx="542.7" cy="219.5" r="1.8"/>
		</g>
		<g>
			<g>
				<polygon class="st4" points="536,245.2 542.3,238.5 539.7,236.6 535.3,244.7 				"/>
			</g>
			<g>
				<path class="st4" d="M531.7,243.1c-0.9-0.9-1.9-2.1-3-3.6c-1-1.4-1.7-2.8-2.3-4l8.6-1.1l0.6,0.9L531.7,243.1 M532.3,246.3
					l5.6-11.2l-1.9-2.9l-12.4,1.6c0,0,1.2,3.5,3.5,6.8C529.7,244.4,532.3,246.3,532.3,246.3L532.3,246.3z"/>
			</g>
			<g>
				<path class="st4" d="M538.6,248l6.3-6.1l1.2,0.3l1.7,8.6c-1.3-0.2-3-0.5-4.6-1C541.2,249.3,539.7,248.6,538.6,248 M535.3,248.4
					c0,0,2.8,2,7.2,3.4c3.9,1.2,7.7,1.4,7.7,1.4l-2.5-12.5l-3.5-1L535.3,248.4L535.3,248.4z"/>
			</g>
			<g>
				<path class="st4" d="M542.7,226.1c0.4,0.3,0.9,0.2,1.2-0.2c0.3-0.4,0.2-0.9-0.2-1.2c-0.4-0.3-0.9-0.2-1.2,0.2
					C542.2,225.3,542.3,225.8,542.7,226.1L542.7,226.1z"/>
			</g>
			<path class="st3" d="M546.8,231.2c-0.9,0.5-2,0.2-2.5-0.7c-0.5-0.9-0.2-2,0.7-2.5c0.9-0.5,2-0.2,2.5,0.7
				C548,229.6,547.7,230.7,546.8,231.2z"/>
		</g>
		<g>
			<g>
				<polygon class="st4" points="568.3,243.9 563.9,235.9 561.3,237.7 567.6,244.4 				"/>
			</g>
			<g>
				<path class="st4" d="M565,247.4c-1.1,0.5-2.5,1.2-4.3,1.7c-1.6,0.5-3.2,0.8-4.5,0.9l1.6-8.5l1-0.3L565,247.4 M568.3,247.8
					l-8.9-8.7l-3.4,0.9l-2.3,12.3c0,0,3.7-0.1,7.5-1.2C565.6,249.7,568.3,247.8,568.3,247.8L568.3,247.8z"/>
			</g>
			<g>
				<path class="st4" d="M571.8,242.3l-3.9-7.8l0.7-1l8.8,1c-0.6,1.2-1.4,2.7-2.4,4.1C573.8,240.2,572.7,241.5,571.8,242.3
					 M571.2,245.6c0,0,2.8-2,5.4-5.8c2.4-3.3,3.7-6.9,3.7-6.9l-12.7-1.5l-2,3L571.2,245.6L571.2,245.6z"/>
			</g>
			<g>
				<path class="st4" d="M552.2,231.7c0.4-0.3,0.5-0.8,0.2-1.2c-0.3-0.4-0.8-0.5-1.2-0.2c-0.4,0.3-0.5,0.8-0.2,1.2
					C551.3,231.9,551.8,231.9,552.2,231.7L552.2,231.7z"/>
			</g>
			<circle class="st3" cx="556.6" cy="229.6" r="1.8"/>
		</g>
		<g>
			<g>
				<polygon class="st4" points="577.1,212.8 568.1,214.5 569.1,217.6 577.3,213.6 				"/>
			</g>
			<g>
				<path class="st4" d="M579.3,217c0.2,1.2,0.3,2.8,0.3,4.6c0,1.7-0.3,3.3-0.5,4.6l-7.6-4.1l0.1-1.1L579.3,217 M580.7,214
					l-11.1,5.8l-0.2,3.5l11,6c0,0,1.1-3.6,1.2-7.5C581.7,217.2,580.7,214,580.7,214L580.7,214z"/>
			</g>
			<g>
				<path class="st4" d="M576.7,209l-8.6,1.2l-0.8-0.9l3.7-8c0.9,0.9,2.1,2.1,3.2,3.5C575.3,206.4,576.1,207.9,576.7,209
					 M579.5,210.6c0,0-1.1-3.2-3.8-7c-2.4-3.3-5.4-5.6-5.4-5.6l-5.3,11.6l2.2,2.8L579.5,210.6L579.5,210.6z"/>
			</g>
			<g>
				<path class="st4" d="M560.5,224.3c-0.1-0.5-0.6-0.7-1.1-0.6c-0.5,0.1-0.7,0.6-0.6,1.1c0.1,0.5,0.6,0.7,1.1,0.6
					C560.4,225.2,560.6,224.8,560.5,224.3L560.5,224.3z"/>
			</g>
			<circle class="st3" cx="559.9" cy="219.5" r="1.8"/>
		</g>
		<g>
			<g>
				<polygon class="st4" points="550.2,194.8 549.1,203.9 552.3,203.9 551,194.8 				"/>
			</g>
			<g>
				<path class="st4" d="M554.9,194c1.2,0.2,2.8,0.5,4.5,1.1c1.6,0.6,3.1,1.3,4.2,1.9l-6.3,5.9l-1-0.4L554.9,194 M552.5,191.8
					l2.1,12.3l3.3,1.3l9.1-8.6c0,0-3.1-2.1-6.8-3.4C555.8,191.8,552.5,191.8,552.5,191.8L552.5,191.8z"/>
			</g>
			<g>
				<path class="st4" d="M546.5,194l-1.5,8.6l-1.1,0.4l-6.5-6c1.2-0.6,2.7-1.3,4.3-1.9C543.5,194.6,545.2,194.2,546.5,194
					 M548.9,191.8c0,0-3.4,0-7.8,1.5c-3.9,1.3-7.1,3.4-7.1,3.4l9.4,8.6l3.4-1.3L548.9,191.8L548.9,191.8z"/>
			</g>
			<g>
				<path class="st4" d="M556,214.2c-0.5,0-0.9,0.4-0.9,0.9c0,0.5,0.4,0.9,0.9,0.9c0.5,0,0.9-0.4,0.9-0.9S556.5,214.2,556,214.2
					L556,214.2z"/>
			</g>
			<circle class="st3" cx="551.3" cy="213.3" r="1.8"/>
		</g>
	</g>
</g>
<g>
	<path class="st0" d="M121,222.3c0-22.3,18-40.3,40.3-40.3c22.3,0,40.3,18,40.3,40.3c0,22.3-18,40.3-40.3,40.3
		C139,262.6,121,244.5,121,222.3z"/>
	<circle class="st1" cx="161.3" cy="222.3" r="33.5"/>
	<circle class="st1" cx="161.3" cy="222.3" r="2.7"/>
	<g>
		<g>
			<g>
				<polygon class="st4" points="134.8,214.9 143.1,218.7 144.1,215.7 135.1,214.1 				"/>
			</g>
			<g>
				<path class="st4" d="M135.5,210.1c0.6-1.1,1.4-2.5,2.5-3.9c1-1.3,2.2-2.5,3.1-3.4l3.7,7.8l-0.7,0.8L135.5,210.1 M132.6,211.7
					l12.3,1.8l2.2-2.7l-5.4-11.3c0,0-3,2.3-5.4,5.4C133.6,208.6,132.6,211.7,132.6,211.7L132.6,211.7z"/>
			</g>
			<g>
				<path class="st4" d="M132.9,218.2l7.7,4.1l0.1,1.2l-7.7,4.3c-0.2-1.3-0.4-3-0.5-4.7C132.5,221.1,132.7,219.4,132.9,218.2
					 M131.5,215.2c0,0-1,3.2-1,7.9c0,4.1,1.1,7.8,1.1,7.8l11.1-6.3l-0.1-3.6L131.5,215.2L131.5,215.2z"/>
			</g>
			<g>
				<path class="st4" d="M155,215.3c-0.1,0.5,0.1,1,0.6,1.1c0.5,0.1,1-0.1,1.1-0.6c0.1-0.5-0.1-1-0.6-1.1
					C155.7,214.6,155.2,214.9,155,215.3L155,215.3z"/>
			</g>
			<circle class="st3" cx="152.7" cy="219.5" r="1.8"/>
		</g>
		<g>
			<g>
				<polygon class="st4" points="146,245.2 152.3,238.5 149.7,236.6 145.3,244.7 				"/>
			</g>
			<g>
				<path class="st4" d="M141.7,243.1c-0.9-0.9-1.9-2.1-3-3.6c-1-1.4-1.7-2.8-2.3-4l8.6-1.1l0.6,0.9L141.7,243.1 M142.3,246.3
					l5.6-11.2l-1.9-2.9l-12.4,1.6c0,0,1.2,3.5,3.5,6.8C139.7,244.4,142.3,246.3,142.3,246.3L142.3,246.3z"/>
			</g>
			<g>
				<path class="st4" d="M148.6,248l6.3-6.1l1.2,0.3l1.7,8.6c-1.3-0.2-3-0.5-4.6-1C151.2,249.3,149.7,248.6,148.6,248 M145.3,248.4
					c0,0,2.8,2,7.2,3.4c3.9,1.2,7.7,1.4,7.7,1.4l-2.5-12.5l-3.5-1L145.3,248.4L145.3,248.4z"/>
			</g>
			<g>
				<path class="st4" d="M152.7,226.1c0.4,0.3,0.9,0.2,1.2-0.2c0.3-0.4,0.2-0.9-0.2-1.2c-0.4-0.3-0.9-0.2-1.2,0.2
					C152.2,225.3,152.3,225.8,152.7,226.1L152.7,226.1z"/>
			</g>
			<path class="st3" d="M156.8,231.2c-0.9,0.5-2,0.2-2.5-0.7c-0.5-0.9-0.2-2,0.7-2.5c0.9-0.5,2-0.2,2.5,0.7
				C158,229.6,157.7,230.7,156.8,231.2z"/>
		</g>
		<g>
			<g>
				<polygon class="st4" points="178.3,243.9 173.9,235.9 171.3,237.7 177.6,244.4 				"/>
			</g>
			<g>
				<path class="st4" d="M175,247.4c-1.1,0.5-2.5,1.2-4.3,1.7c-1.6,0.5-3.2,0.8-4.5,0.9l1.6-8.5l1-0.3L175,247.4 M178.3,247.8
					l-8.9-8.7l-3.4,0.9l-2.3,12.3c0,0,3.7-0.1,7.5-1.2C175.6,249.7,178.3,247.8,178.3,247.8L178.3,247.8z"/>
			</g>
			<g>
				<path class="st4" d="M181.8,242.3l-3.9-7.8l0.7-1l8.8,1c-0.6,1.2-1.4,2.7-2.4,4.1C183.8,240.2,182.7,241.5,181.8,242.3
					 M181.2,245.6c0,0,2.8-2,5.4-5.8c2.4-3.3,3.7-6.9,3.7-6.9l-12.7-1.5l-2,3L181.2,245.6L181.2,245.6z"/>
			</g>
			<g>
				<path class="st4" d="M162.2,231.7c0.4-0.3,0.5-0.8,0.2-1.2s-0.8-0.5-1.2-0.2c-0.4,0.3-0.5,0.8-0.2,1.2
					C161.3,231.9,161.8,231.9,162.2,231.7L162.2,231.7z"/>
			</g>
			<circle class="st3" cx="166.6" cy="229.6" r="1.8"/>
		</g>
		<g>
			<g>
				<polygon class="st4" points="187.1,212.8 178.1,214.5 179.1,217.6 187.3,213.6 				"/>
			</g>
			<g>
				<path class="st4" d="M189.3,217c0.2,1.2,0.3,2.8,0.3,4.6c0,1.7-0.3,3.3-0.5,4.6l-7.6-4.1l0.1-1.1L189.3,217 M190.7,214
					l-11.1,5.8l-0.2,3.5l11,6c0,0,1.1-3.6,1.2-7.5C191.7,217.2,190.7,214,190.7,214L190.7,214z"/>
			</g>
			<g>
				<path class="st4" d="M186.7,209l-8.6,1.2l-0.8-0.9l3.7-8c0.9,0.9,2.1,2.1,3.2,3.5C185.3,206.4,186.1,207.9,186.7,209
					 M189.5,210.6c0,0-1.1-3.2-3.8-7c-2.4-3.3-5.4-5.6-5.4-5.6l-5.3,11.6l2.2,2.8L189.5,210.6L189.5,210.6z"/>
			</g>
			<g>
				<path class="st4" d="M170.5,224.3c-0.1-0.5-0.6-0.7-1.1-0.6c-0.5,0.1-0.7,0.6-0.6,1.1c0.1,0.5,0.6,0.7,1.1,0.6
					C170.4,225.2,170.6,224.8,170.5,224.3L170.5,224.3z"/>
			</g>
			<circle class="st3" cx="169.9" cy="219.5" r="1.8"/>
		</g>
		<g>
			<g>
				<polygon class="st4" points="160.2,194.8 159.1,203.9 162.3,203.9 161,194.8 				"/>
			</g>
			<g>
				<path class="st4" d="M164.9,194c1.2,0.2,2.8,0.5,4.5,1.1c1.6,0.6,3.1,1.3,4.2,1.9l-6.3,5.9l-1-0.4L164.9,194 M162.5,191.8
					l2.1,12.3l3.3,1.3l9.1-8.6c0,0-3.1-2.1-6.8-3.4C165.8,191.8,162.5,191.8,162.5,191.8L162.5,191.8z"/>
			</g>
			<g>
				<path class="st4" d="M156.5,194l-1.5,8.6l-1.1,0.4l-6.5-6c1.2-0.6,2.7-1.3,4.3-1.9C153.5,194.6,155.2,194.2,156.5,194
					 M158.9,191.8c0,0-3.4,0-7.8,1.5c-3.9,1.3-7.1,3.4-7.1,3.4l9.4,8.6l3.4-1.3L158.9,191.8L158.9,191.8z"/>
			</g>
			<g>
				<path class="st4" d="M166,214.2c-0.5,0-0.9,0.4-0.9,0.9c0,0.5,0.4,0.9,0.9,0.9c0.5,0,0.9-0.4,0.9-0.9S166.5,214.2,166,214.2
					L166,214.2z"/>
			</g>
			<circle class="st3" cx="161.3" cy="213.3" r="1.8"/>
		</g>
	</g>
</g>
</svg>
