<?xml version="1.0" encoding="utf-8"?>
<!-- Generator: Adobe Illustrator 23.0.1, SVG Export Plug-In . SVG Version: 6.00 Build 0)  -->
<svg version="1.1" id="Calque_1" xmlns="http://www.w3.org/2000/svg" xmlns:xlink="http://www.w3.org/1999/xlink" x="0px" y="0px"
	 viewBox="0 0 6553.6 8192" style="enable-background:new 0 0 6553.6 8192;" xml:space="preserve">
<style type="text/css">
	.st0{fill:#FFFFFF;}
	.st1{font-family:'Arial-BoldMT';}
	.st2{font-size:0.5461px;}
</style>
<g>
	<path class="st0" d="M2638.6,4261c15.4-5,32.1,3.4,37.2,18.9c5,15.4-3.4,32.1-18.9,37.2l-57,18.8l-55.5,594.8l119.5,29.8
		l198.2-678.8l0,0l0.1-0.3c7.6-25.3,11.9-48.9,13.2-70.5c2.3-38.7-5.8-70-22-93.6c-15.9-23.3-40.4-39.9-71.3-49.3
		c-15.3-4.6-32.3-7.5-51-8.5l0,0l-701.1-25.3c-3.5-0.1-7-0.1-10.5,0c-0.2,0.1-0.5,0-0.9,0.1c-0.3,0-0.7,0-1,0
		c-58.7,2.5-99.8,39.3-120.1,88.4c-13.1,31.6-17.7,68.4-13,105c4.6,36.4,18.6,72.2,42.6,102.3c50.7,63.4,147.3,101.5,299.7,66.7
		l411.7-135.3v-0.1V4261z M4546.8,4470.5l43.7,73.1l-73.1,43.7l-43.7-73.1L4546.8,4470.5z M5569.6,3858.9l43.7,73.1l-73.1,43.7
		l-43.7-73.1L5569.6,3858.9z M5423.4,3946.3l43.7,73.1L5394,4063l-43.7-73.1L5423.4,3946.3z M5277.3,4033.6l43.7,73.1l-73.1,43.7
		l-43.7-73.1L5277.3,4033.6z M5131.1,4121l43.7,73.1l-73.1,43.7l-43.7-73.1L5131.1,4121z M4985,4208.4l43.7,73.1l-73.1,43.7
		l-43.7-73.1L4985,4208.4z M4838.9,4295.8l43.7,73.1l-73.1,43.7l-43.7-73.1L4838.9,4295.8z M4692.7,4383.2l43.7,73.1l-73.1,43.7
		l-43.7-73.1L4692.7,4383.2z M5697.8,880.6c6.1-0.2,10.8-5.5,10.6-11.6c-0.2-6.1-5.5-10.8-11.6-10.6l-65,2.8
		c-0.5-6.9-1.4-13.3-2.8-19.9l64.2-2.7c6.1-0.2,10.8-5.5,10.6-11.6c-0.2-6.1-5.5-10.8-11.6-10.6l-69.9,2.9
		c-3.3-9-7.8-19.1-13.7-31.7l-185.1-399l62.1-30.8l254.1,427.8c0.5,1,1.2,1.9,1.9,2.7c37.7,56.9,52.8,153.5,55.6,260.4
		c4.5,170.9-22.8,365.3-41.1,471.8c-0.4,2.8-0.5,5.8-0.7,8.6c-42.2,4-84.8,20.5-128.1,37.2c-52.2,20.1-105.8,40.9-154.7,35.8
		l-42.8-105.2c-4.6-11.3-15.3-18.1-26.8-18.4l38.6-106.8c10.3,5.9,21.7,12.5,38.2,15.5c55.8,10.4,90.9-32.8,117.1-65.1
		c4-4.9,3.8-4.8,5.8-7.2v-0.1v0.1c2.2-2.7,4-6,5.1-9.4c22.6-55.7,23.7-274.9,24.2-394.3c0-9.4,0.1-18.9,0.1-28.3l65.3-2.8
		L5697.8,880.6z M5394.2,337.7l-76.5-106.6c-7.2-14,0.3-29.9,13.7-43c8.5-8.4,19.2-15.6,30.5-21c11.1-5.2,22.5-8.6,32.5-9.3
		c10.4-0.8,19,1.7,22.1,8.8l42.8,138.7l-65,32.3H5394.2z M5518.9,299.4c-0.2-1.3-0.5-2.6-0.9-4l-45.1-146.3h-0.1l-0.2-0.9
		c-12.9-37.7-45.1-51.6-82-49.2c-36.4,2.4-74.6,21.4-100.4,46.9c-31.3,30.9-46.7,72.4-23.6,114.3h0.1c0.5,1,1.1,2,1.7,2.8l91,126.8
		l196.2,422.6c18.6,40.1,18.6,48.9,18.2,89v9.7c-0.5,120.5-1.7,349.1-15.9,366.3v0.1l-6.3,7.6c-16.7,20.6-39.1,48.3-60.5,44.2
		c-6.6-1.2-13.7-5.4-20-9c-18-10.4-33.3-19.3-57.8-9.7c-8.3,2.7-15.3,9.2-18.5,17.9l-57.3,158.8l-111.4-52.4
		c-12.2-6.3-27.7-3.4-36.6,7.8c-7.3,9.2-15.9,20.9-21.1,36.3c-5.7,17.5-6.1,37.6,5.7,59.7c-0.1-0.2-0.2-0.3,0,0
		c0.9,1.6,0.3,5.8-1.2,10.9c-1.7,5.4-4.8,10.5-9.3,13c-0.9,0.4-1.7,1-2.7,1.4l-39.2,23l-676.3-402.2c-13-8-29.8-8.7-43.9-0.4
		l-1326.4,788.6l-534.9-308.8c-12.8-7.6-29.3-8.3-43-0.2l-1595.1,921c-14.2,6.9-23.9,21.4-23.9,38.3v1845.1
		c0,23.5,19,42.6,42.6,42.6c23.5,0,42.6-19,42.6-42.6V2648.1l1555.3-898l1555.3,898v898.1c0,23.5,19,42.6,42.6,42.6
		c23.5,0,42.6-19,42.6-42.6v-922.5h-0.1c0-14.6-7.6-28.8-21.2-36.7l-978.2-564.7L4423,1270.9L5932.1,2168V3963L4423,4860.1
		l-1141.4-678.6c-20.2-11.9-46.2-5.2-58.2,15c-11.9,20.2-5.2,46.2,15,58.2l1163,691.5c14.1,8.3,30.9,7.5,43.9-0.4l1539.8-915.5
		c18.5-4.7,32.1-21.4,32.1-41.3v-1847c0-19.9-13.7-36.6-32.1-41.3l-193.3-114.9l7.8-203.4h-0.1l1.1-17.8c22.7,0.2,46.1-2,69.1-6.3
		c66.5-12.7,131.4-43.5,164.6-82.5c1.2-1.4,2.8-3.5,4.9-6.3c8.5-11.3,7.6-26.7-1.1-36.9c-28.8-36-61.1-60.6-102.7-77
		c-33.5-13.3-72.6-21.1-120.5-25.1l0.1-1.7c18.6-109.1,46.3-306.9,41.6-481.7c-3.1-116.8-20.9-224.2-65.4-291.5L5523,303.8
		c-1.1-1.7-2.3-3.5-3.7-5l-0.2,0.2L5518.9,299.4z M5179.5,1622.1l11-6.4c19.8-10.6,32.3-29.1,38.2-47.8c6-19.3,5.1-40.2-2.2-54.7
		c-0.2-0.4,0,0-0.7-1.3c-2.4-4.7-2.8-8.6-2.2-12.1l60.2,28.3c-7.6,8.2-10.2,20.2-5.7,31.2l45,110.6c1.5,3.7,3.7,7,6.3,9.6l0.1-0.1
		c-2.3,9.4-4.5,18.9-5.7,28.5l-144.4-85.9L5179.5,1622.1z M5449.3,1782.5c3.9-1.5,7.6-3.1,11.1-4.5c24.6-10,46.4-22.1,67.6-33.8
		c54.1-29.7,103.5-56.9,150.8-16.8c1.2,1.1,3.2,2.6,5.8,4.6c16.1,12.1,35.5,20.6,56.9,26l-1.4,22.7h-0.1l-6.4,170.7l-284.4-169.1
		L5449.3,1782.5z M4401.9,1790.2l29.4,85.9l-0.1-33.1l-6-9.1C4416.6,1820.7,4409,1804.9,4401.9,1790.2z M5067.7,864.2
		c-58.4,23.8-98.9,74.7-117,138c-17.4,60.7-14.1,133,14.2,202.5c28.3,69.5,76.3,123.5,131.2,154.9c123.2,70.5,257.9,15.6,297-120.8
		c17.4-60.7,14.1-133-14.2-202.5s-76.3-123.5-131.2-154.9C5190.7,848.7,5126.1,840.5,5067.7,864.2z M5007.4,1018.4
		c13.2-46.1,41.7-82.9,82.6-99.4c40.7-16.6,86.8-10.2,128.6,13.7c94.7,54.2,147.9,185,117.9,289.9c-13.2,46.1-41.7,82.9-82.6,99.4
		c-40.7,16.6-86.8,10.2-128.6-13.7C5030.5,1254.1,4977.4,1123.3,5007.4,1018.4z M5436.5,1655.7c72.4,20,143.3-7.4,212.2-34
		c47.3-18.2,93.5-36.2,132.9-34c55.5,3.1,97.8,9.7,131.4,23.2c24,9.5,44.1,22.7,62,40.6c-27.5,22.8-71.2,40.9-117,49.6
		c-53.2,10.2-107.2,7.3-138-15.9c-0.3-0.3-1.4-1.1-3.1-2.5c-78.3-66.5-144.8-30-217.4,9.9c-20.4,11.3-41.4,22.8-61.6,31
		c-12.8,5.2-29.4,11.8-43,13.1c-5.4,0.5-9.8,0.1-11-2.4c-4.8-10.9-0.4-28.2,3.8-45.5c1.2-4.9,2.5-9.8,3.6-14.7l45-18.2v0.1V1655.7z
		 M5344.1,1564.3l42.3-17.1l22.7,55.9l-42.3,17.1L5344.1,1564.3z M5174,1539.4c0.3,0.5,0.1,0.1-0.1-0.1L5174,1539.4z M2702.6,1636
		c-20.4,11.5-46.2,4.3-57.7-16.2c-11.5-20.4-4.3-46.2,16.2-57.7l1665.5-940.4c20.4-11.5,46.2-4.3,57.7,16.2
		c11.5,20.4,4.3,46.2-16.2,57.7L2702.6,1636z M3184.5,1671.6c-20.4,11.5-46.2,4.3-57.7-16.2c-11.5-20.4-4.3-46.2,16.2-57.7
		l1162-656.1c20.4-11.5,46.2-4.3,57.7,16.2c11.5,20.4,4.3,46.2-16.2,57.7L3184.5,1671.6z M550.6,6448.7c-23.4,0-42.4-19-42.4-42.4
		s19-42.4,42.4-42.4l2110.9,6c23.4,0,42.4,19,42.4,42.4s-19,42.4-42.4,42.4L550.6,6448.7z M3146.5,3888.9c2.1,5.8-1,12-6.8,14.1
		c-5.8,2.1-12-1-14.1-6.8l-22.2-62.9c-19.9,2.2-40.2-1.2-58.1-10.7l-0.1-0.1l0,0l-0.5-0.3c-0.3-0.2-0.7-0.3-1.1-0.5l0,0
		l-313.7-183.9c-11.5,41.4-41,92.2-76.3,146l517.5,216.4c10.9,2.1,22.5,2.7,32.2-1.4c10.4-4.5,20.6-15.4,29.2-37.9l0,0l134.1-392.2
		l-58.8-25.8l-121.5,234.6l0,0l-0.4,0.8l0,0c-6.2,11.5-14.3,21.3-23.7,29.4l23.3,65.8c2.1,5.8-1,12-6.8,14.1c-5.8,2.1-12-1-14.1-6.8
		l-21.3-60.1c-5.9,3.2-12,5.8-18.4,7.9l21.3,60.2l0.1,0.2L3146.5,3888.9z M2078.5,2818.2c-6.1-0.2-10.8-5.5-10.6-11.6
		c0.2-6.1,5.5-10.8,11.6-10.6l65,2.8c0.5-6.9,1.4-13.3,2.8-19.9l-64.2-2.7c-6.1-0.2-10.8-5.5-10.6-11.6s5.5-10.8,11.6-10.6l69.9,2.9
		c3.3-9,7.8-19.1,13.7-31.7l185.1-399l-62.1-30.8l-254.1,427.8c-0.5,1-1.2,1.9-1.9,2.7c-37.7,56.9-52.8,153.5-55.6,260.4
		c-4.5,170.9,22.8,365.3,41.1,471.8c0.2,1.3,0.3,2.6,0.4,3.9l0.3,4.7c42.2,4,84.8,20.5,128.1,37.2c52.2,20.1,105.8,40.9,154.7,35.8
		l42.8-105.2c4.6-11.3,15.3-18.1,26.8-18.5l-38.6-106.8c-10.3,5.9-21.7,12.5-38.2,15.5c-55.8,10.4-90.9-32.8-117.1-65.1
		c-4-4.9-3.8-4.8-5.8-7.2v-0.1v0.1c-0.4-0.5-1-1.3-1.5-2.1c-1.6-2.3-2.7-4.7-3.6-7.3c-22.6-55.7-23.7-274.9-24.2-394.3v-9.7
		c0-6.8-0.1-13,0-18.6l-65.3-2.8h-0.1L2078.5,2818.2z M2127.8,4956.8l66.7,2.9c6.1,0.2,10.8,5.5,10.6,11.6
		c-0.2,6.1-5.5,10.8-11.6,10.6l-76.6-3.3c-1.5,2.6-3.1,5.2-4.7,7.8c-12.9,20.2-28.6,37.1-44.1,52.8L1568.6,5627l109.1,98.1
		l577.9-556.2c0.7-0.8,1.3-1.4,2-2c24.1-22.3,52.3-49.9,73.2-82.1c19.7-30.3,33.2-65,30.7-103.8c-6.7-105.1-14.4-205.5-22.4-305.8
		c-6.8-86.3-13.4-172.7-18.7-247.5l-77,25.3c-0.9,0.3-1.7,0.5-2.5,0.8l0,0c-83.7,19.2-153.8,18.9-211.2,5
		c4.7,18.5,10.9,42.9,18.1,70.9c35.7,139.5,93.2,363.8,91.8,378.9c-0.2,2.4-0.5,4.7-0.9,7.2l70.7,3.1c6.1,0.2,10.8,5.5,10.6,11.6
		c-0.2,6.1-5.5,10.8-11.6,10.6l-74.2-3.2c-1.9,6.8-4,13.2-6.7,19.3l0.1-0.2L2127.8,4956.8z M2382.2,2275.3l76.5-106.6
		c7.2-14-0.3-29.9-13.7-43c-8.5-8.4-19.2-15.6-30.5-21c-11.1-5.2-22.5-8.6-32.5-9.3c-10.4-0.8-19,1.7-22.1,8.8l0,0l-42.8,138.7
		l65,32.3H2382.2z M2257.5,2237c0.2-1.3,0.5-2.6,0.9-4l45.1-146.3h0.1l0.2-0.9c12.9-37.7,45.1-51.6,82-49.2
		c17.6,1.2,36.3,6.3,53.6,14.5c17.1,8.1,33.5,19.2,46.9,32.3c31.3,30.9,46.7,72.4,23.6,114.3h-0.1c-0.5,1-1.1,2-1.7,2.8l-91,126.8
		L2220.9,2750c-18.6,40.1-18.6,48.9-18.2,89v9.7c0.5,120.5,1.7,349.1,15.9,366.3v0.1l6.3,7.6c16.7,20.6,39.1,48.3,60.5,44.2
		c6.6-1.2,13.7-5.4,20-9c18-10.4,33.3-19.3,57.8-9.7c8.3,2.7,15.3,9.2,18.5,17.9l57.3,158.8l111.4-52.4c12.2-6.3,27.7-3.4,36.6,7.8
		c7.3,9.2,15.9,20.9,21.1,36.3c5.7,17.5,6.1,37.6-5.7,59.7l0,0c0.1-0.2,0.2-0.4,0,0c-0.9,1.6-0.3,5.8,1.2,10.9
		c1.7,5.4,4.8,10.5,9.3,13l0.9,0.4c0.5,0.3,1.2,0.7,1.9,1l99.8,58.7l0,0l0.4,0.2l357.4,209.6l0,0c10,5,22,5.6,33,2.1
		c11.5-3.6,22-11.4,28-22.5l0,0l0.2-0.3l0,0l116.4-224.9c-3.8-6-9.6-14.2-16.2-23.5c-35.7-50.4-87.9-123.8-42.5-169.4
		c17.8-17.8,39-26.8,66.6-20.4c14.1,3.2,29.5,10.9,46.5,24.2l4.3-22.3h0.1c0.1-0.5,0.2-1.1,0.3-1.6c15.2-60.8,50.2-92.8,87.3-102.2
		c20.8-5.2,42.2-3.2,61.1,5.1c18.7,8.2,35,22.4,46.1,41.6c21.4,36.7,24.1,91.6-13.2,155.3l-62.3,126c4,7.1,5,15.7,2.2,24l-143,417.9
		l0,0l-0.3,0.8c-15.1,40.5-37.2,61.9-61.5,72.3c-24,10.3-48.3,8.8-69.5,4.5c-2-0.4-3.9-1-5.8-1.7l-531-222.1
		c-5.6,8.2-11.1,16.4-16.7,24.6c-32.2,47.1-64.6,94.2-87.8,134.3l218.3,7.9h0.7l0,0c22.9,1.3,44.6,5,64.7,11.1
		c43.9,13.2,79.2,37.6,102.9,72.2c23.5,34.4,35.2,78.1,32.1,130.4c-1.5,25.7-6.6,53.6-15.6,83.8l0,0l-206.2,706.2
		c-3.1,10.4-11.4,17.8-21.1,20.3c0.7,25.7,4.5,53.8,12.1,80c8.5,28.9,21.3,54.7,39,70.1c0.8,0.7,1.3,1.2,2,1.9
		c7.6,7.2,20.4,17.8,35.6,30.4c52.6,43.8,132.5,110.4,151.9,155.9c13.1,30.6,8.2,55-23.9,68.8c-15.3,6.6-30.9,9.5-47,9.9
		c-15.1,0.4-30.1-1.5-45-4.7c-85.4-18.9-165.8-78.4-244.4-136.8c-39.3-29.2-78.1-57.9-116.4-80.4c-14.3-7.1-25-17-32.5-29.7
		c-7.4-12.6-11.1-27-11.4-43.1c-0.4-29.7,47-96.6,80.7-144.1c5.4-7.5,10.4-14.6,14.6-20.6l-1.4-0.3c-14.3-3.6-23.6-17-22.3-31.3
		h-0.1l55.5-594.5l-160,52.5c6.4,96.2,12.9,179.2,19.3,261.9c8.1,104.3,16.3,208.7,22.5,306.7c3.4,53.4-14.3,99.9-40.1,139.6
		c-24.5,37.7-56,68.6-82.8,93.4c-0.3,0.3-0.8,0.7-1.1,1l-597.6,575.2c-7.6,7.4-18.2,9.8-27.9,7.3c-7.9,16.3-17.1,31.7-26.2,47
		c-21.2,35.5-42.3,70.9-38.8,105.6c0.1,0.4,0.1,0.9,0.1,1.2h0.1c0.7,11,2.8,29.1,5.4,50.8c8.7,73.4,22.2,185.8,2.8,232
		c-12.3,29.5-32.8,41.8-64.3,28.6c-15.6-6.6-29.1-15.9-40.9-27.3c-11.1-10.8-20.9-23.3-29.4-36.7c-49.6-77.2-67.8-181.1-85.6-282.7
		c-8.8-50.8-17.7-100.9-30.3-145.9c-5.8-15.8-7-31-3.8-45.9c3.2-14.5,10.4-27.9,21.4-40c21-22.9,77.4-36.8,117.3-46.2
		c-1.3-8.3,0.8-17,6.6-23.9h-0.1l518.1-609.6c1.1-1.2,2.2-2.3,3.4-3.4c13.1-13.1,26.1-27.2,36-42.8c9.6-15.1,16.7-31.9,18.6-51.7
		c0.4-4.8-55.5-223-90.2-358.8c-15.3-59.6-26.7-103.8-27.6-109.1c-0.1-0.4-0.1-0.9-0.2-1.3c-33.6-17.5-60.8-40.7-82.1-67.3
		c-31.1-39-49.2-85.1-55.1-131.8c-5.9-46.4,0.2-93.6,17.1-134.7c25.4-61.5,74.6-109.2,143.9-121.8l-9.8-257.8h0.1l-1.1-17.8
		c-22.7,0.2-46.1-2-69.1-6.3c-66.5-12.7-131.4-43.5-164.6-82.5c-1.2-1.4-2.8-3.5-4.9-6.3c-8.5-11.3-7.6-26.7,1.1-36.9
		c28.8-36,61.1-60.6,102.7-77c33.5-13.3,72.6-21.1,120.5-25.1l-0.1-1.7c-18.6-109.1-46.3-306.9-41.6-481.7
		c3.1-116.8,20.9-224.2,65.4-291.5l268.2-451.7l0,0c1.1-1.9,2.3-3.5,3.7-5l0.2,0.2V2237z M3292.4,3404c-0.4-0.4-0.8-0.8-1.2-1.2
		c-20.3-21-34.8-31.1-45.4-33.4c-4.4-1-8,0.9-11.6,4.5c-10.2,10.2,22.7,57.1,46.5,90.8L3292.4,3404h0.1H3292.4z M3377.6,3509.2
		l61.3-124.1c0.3-0.7,0.7-1.3,1.1-2c25.2-42.7,25.4-76.2,13.7-96.7c-4.7-8.2-11.4-14-18.8-17.3c-7.1-3.2-15.2-3.9-23-1.9
		c-17.5,4.5-34.8,22.4-44.1,58.1l-31.9,165.5l41.8,18.4V3509.2z M2708.7,2801.9c58.4,23.8,98.9,74.7,117,138
		c17.4,60.7,14.1,133-14.2,202.5c-28.3,69.5-76.3,123.5-131.2,154.9c-57,32.7-121.6,40.9-180,17.1c-58.4-23.8-98.9-74.7-117-138
		c-17.4-60.7-14.1-133,14.2-202.5c28.3-69.5,76.3-123.5,131.2-154.9C2585.7,2786.4,2650.3,2778.2,2708.7,2801.9z M2769,2956.1
		c-13.2-46.1-41.7-82.9-82.6-99.4c-40.7-16.6-86.8-10.2-128.5,13.7c-43.8,25.1-82.6,69-105.7,125.9
		c-23.2,56.9-26.1,115.3-12.2,163.9c13.2,46.1,41.7,82.9,82.6,99.4c40.7,16.6,86.8,10.2,128.6-13.7c43.8-25.1,82.6-69,105.7-125.9
		c23.2-56.9,26.1-115.3,12.2-163.9H2769z M2446.9,3617.2c6.2,25.3,11.5,50.8-0.8,78.3c-14.3,32.3-41.2,40.3-70.7,37.6
		c-21.3-2.1-42.9-10.5-59.4-17.4c-24.6-10-46.4-22.1-67.6-33.8c-54.1-29.7-103.5-56.9-150.8-16.8c-1.2,1.1-3.2,2.6-5.9,4.6
		c-16.1,12.1-35.5,20.6-56.9,26l1.4,22.1v0.7h0.1l9.7,257.3l405,14.6c0.5-2.7,1.4-5.4,2.9-8c25.4-47.3,63.1-102.3,100.9-157.4
		c65.4-95.5,130.7-190.8,124-217.1l-93-54.7c-19.8-10.6-32.3-29.1-38.2-47.8c-6-19.3-5.1-40.2,2.2-54.7c0.2-0.4,0,0,0.7-1.3
		c2.4-4.7,2.8-8.6,2.2-12.1l-60.2,28.3c7.6,8.2,10.2,20.2,5.7,31.2l-45,110.6c-1.5,3.7-3.7,7-6.3,9.6l-0.1-0.1L2446.9,3617.2z
		 M2340,3593.3c-72.4,20-143.3-7.4-212.2-34c-47.3-18.2-93.5-36.2-132.9-34c-55.5,3.1-97.8,9.7-131.4,23.2
		c-24,9.5-44.1,22.7-62,40.6c27.5,22.8,71.2,40.9,117,49.6c53.2,10.2,107.2,7.3,138-15.9c0.3-0.3,1.4-1.1,3.1-2.5
		c78.3-66.5,144.8-30,217.4,9.9c20.4,11.3,41.4,22.8,61.6,31c12.8,5.2,29.4,11.8,43,13.1c5.4,0.5,9.8,0.1,11-2.4
		c4.8-10.9,0.4-28.2-3.8-45.5c-1.2-4.9-2.5-9.8-3.6-14.7l-45-18.2v0.1V3593.3z M2432.4,3502l-42.3-17.1l-22.7,55.9l42.3,17.1
		L2432.4,3502z M2602.5,3477.1c-0.3,0.5-0.1,0.1,0.1-0.1l0,0L2602.5,3477.1z M2567.8,4997.6c-6,9.5-15.8,23.4-27.3,39.5
		c-29.2,41.2-70.2,99-70,109.3c0.1,5.9,1.1,10.6,3.1,13.9c1.5,2.6,4.3,4.9,8,6.9c1,0.4,2,1,2.9,1.5c40.3,23.6,81,53.7,122.3,84.4
		c73.5,54.5,148.7,110.2,222.3,126.5c10.7,2.4,21.1,3.7,30.8,3.5c5.4-0.1,10.5-0.8,15.5-2c-19-33.6-87.1-90.3-132.7-128.3
		c-16.3-13.5-30-25-38.3-32.8l-0.2-0.2c-27-23.4-45.5-59.3-56.9-98.4c-10.3-35.2-14.9-73.6-14.5-107.5l-64.9-16.2v0.1V4997.6z
		 M1543.8,5683.7c-1.3,0.5-2.7,1.1-4.2,1.5c-8.2,2.2-15.6,3.9-24,5.9c-32.8,7.8-81.3,19.1-90.5,29.3c-3.9,4.4-6.4,8.6-7.3,12.8
		c-0.9,3.8-0.3,8.2,1.5,13.2h-0.1c0.2,0.8,0.5,1.5,0.8,2.3c13.5,47.6,22.7,100.3,32,153.6c16.7,95.6,33.8,193.2,77.2,260.8
		c6.4,9.9,13.2,19,20.8,26.1c4,3.8,8.2,7.2,12.7,10.2c8.8-38.9-2.3-131.8-9.7-194.2c-2.7-23.3-5.1-42.5-5.8-54.2l0,0
		c-4.9-53.6,21-96.9,46.9-140.4c11-18.6,22.3-37.2,29.6-55.1l-80-72h0.2V5683.7z"/>
</g>
<text transform="matrix(1 0 0 1 0 6555.2383)" class="st1 st2">Created by Olena Panasovska</text>
<text transform="matrix(1 0 0 1 0 6555.7852)" class="st1 st2">from the Noun Project</text>
</svg>
